name ./resultDataOpenSim/trcMotMarkerGrf/sub06/grf-15-06.mot
datacolumns 19
datarows 22
range 1.07200000 1.15600000
endheader

                time	     ground_force_vx	     ground_force_vy	     ground_force_vz	     ground_force_px	     ground_force_py	     ground_force_pz	   l_ground_force_vx	   l_ground_force_vy	   l_ground_force_vz	   l_ground_force_px	   l_ground_force_py	   l_ground_force_pz	     ground_torque_x	     ground_torque_y	     ground_torque_z	   l_ground_torque_x	   l_ground_torque_y	   l_ground_torque_z	
          1.07200000	          0.00000000	          0.00000000	          0.00000000	          0.00000000	          0.00000000	          0.00000000	        150.93850872	        440.64554687	        -14.41366615	          0.05646631	         -0.09999672	          0.02050789	          0.00000000	          0.00000000	          0.00000000	          0.00000000	         -2.87491987	          0.00000000	
          1.07600000	          0.00000000	          0.00000000	          0.00000000	          0.00000000	          0.00000000	          0.00000000	        144.45299304	        406.94780037	        -14.03467740	          0.05802215	         -0.09999576	          0.02136440	          0.00000000	          0.00000000	          0.00000000	          0.00000000	         -2.79628345	          0.00000000	
          1.08000000	          0.00000000	          0.00000000	          0.00000000	          0.00000000	          0.00000000	          0.00000000	        136.25330660	        371.58538613	        -13.62817274	          0.05986303	         -0.09999500	          0.02233195	          0.00000000	          0.00000000	          0.00000000	          0.00000000	         -2.68743014	          0.00000000	
          1.08400000	         -0.29653892	         61.44848277	          1.76403402	          0.80116409	          0.00000000	          0.07564107	        126.42821883	        335.35711517	        -13.24046504	          0.06200775	         -0.09999500	          0.02341374	          0.00000000	          1.05559990	          0.00000000	          0.00000000	         -2.54400152	          0.00000000	
          1.08800000	        -36.61159186	        375.41796654	          4.45959972	          0.80858614	          0.00000000	          0.07425478	        115.21479155	        299.16989293	        -12.86195032	          0.06441642	         -0.09999488	          0.02460173	          0.00000000	          1.38039005	          0.00000000	          0.00000000	         -2.36486685	          0.00000000	
          1.09200000	        -76.03749265	        647.76711759	          6.98514733	          0.81570912	          0.00000000	          0.07300152	        103.08607387	        263.88215055	        -12.41241918	          0.06697445	         -0.09999400	          0.02586485	          0.00000000	          1.68004133	          0.00000000	          0.00000000	         -2.15325047	          0.00000000	
          1.09600000	       -119.74288223	        845.50885473	          9.02705858	          0.82286036	          0.00000000	          0.07208527	         90.83215159	        230.12812860	        -11.75844293	          0.06957928	         -0.09999400	          0.02716838	          0.00000000	          1.92682544	          0.00000000	          0.00000000	         -1.91708287	          0.00000000	
          1.10000000	       -165.15514308	        954.62557342	         10.16019823	          0.82951583	          0.00000000	          0.07187210	         79.44202246	        198.26841761	        -10.75071940	          0.07213454	         -0.09999400	          0.02848850	          0.00000000	          2.09813081	          0.00000000	          0.00000000	         -1.66810006	          0.00000000	
          1.10400000	       -207.46734932	        984.95912837	         10.03777258	          0.83521749	          0.00000000	          0.07231380	         69.65642940	        168.57072154	         -9.30405318	          0.07457119	         -0.09999496	          0.02982826	          0.00000000	          2.17412615	          0.00000000	          0.00000000	         -1.41975616	          0.00000000	
          1.10800000	       -243.81644343	        963.13752679	          8.76033587	          0.84026214	          0.00000000	          0.07284418	         61.53283289	        141.38999571	         -7.46428130	          0.07683211	         -0.09999408	          0.03119087	          0.00000000	          2.13411007	          0.00000000	          0.00000000	         -1.18464446	          0.00000000	
          1.11200000	       -274.99683621	        918.53602425	          6.71055266	          0.84569597	          0.00000000	          0.07305320	         54.50922978	        117.03024137	         -5.36127451	          0.07882672	         -0.09999488	          0.03255507	          0.00000000	          1.95722270	          0.00000000	          0.00000000	         -0.97230129	          0.00000000	
          1.11600000	       -302.63246262	        873.20154412	          4.27768337	          0.85199885	          0.00000000	          0.07302131	         47.89900664	         95.47596133	         -3.10650530	          0.08050477	         -0.09999724	          0.03392927	          0.00000000	          1.62855316	          0.00000000	          0.00000000	         -0.78810369	          0.00000000	
          1.12000000	       -325.98247706	        840.14139673	          2.02885232	          0.85833033	          0.00000000	          0.07296360	         41.31231678	         76.43005441	         -0.76301891	          0.08194381	         -0.09999793	          0.03536954	          0.00000000	          1.14637457	          0.00000000	          0.00000000	         -0.63354026	          0.00000000	
          1.12400000	       -342.37709278	        825.69059883	          0.63708422	          0.86318478	          0.00000000	          0.07286071	         34.71317404	         59.59392582	          1.62251135	          0.08331568	         -0.09999800	          0.03708993	          0.00000000	          0.52678049	          0.00000000	          0.00000000	         -0.50731803	          0.00000000	
          1.12800000	       -350.15633873	        831.40491466	          0.36110368	          0.86586675	          0.00000000	          0.07262226	         28.23531373	         44.76890653	          3.99587064	          0.08458089	         -0.09999656	          0.03931537	          0.00000000	         -0.19418023	          0.00000000	          0.00000000	         -0.40626605	          0.00000000	
          1.13200000	       -350.19273234	        855.17128119	          0.89742155	          0.86696602	          0.00000000	          0.07225433	         22.00909696	         31.71542228	          6.29779458	          0.08529846	         -0.09999668	          0.04225950	          0.00000000	         -0.95915782	          0.00000000	          0.00000000	         -0.32564325	          0.00000000	
          1.13600000	       -344.85283656	        892.53345535	          1.74039455	          0.86722959	          0.00000000	          0.07183897	         16.11468609	         20.08301894	          8.47620798	          0.08463629	         -0.09999796	          0.04626005	          0.00000000	         -1.68958611	          0.00000000	          0.00000000	         -0.25958546	          0.00000000	
          1.14000000	       -336.81071613	        937.98143825	          2.50309279	          0.86684256	          0.00000000	          0.07145989	          0.00000000	          0.00000000	          0.00000000	          0.00000000	          0.00000000	          0.00000000	          0.00000000	         -2.29149731	          0.00000000	          0.00000000	          0.00000000	          0.00000000	
          1.14400000	       -329.11699065	        985.70455563	          3.02729028	          0.86601015	          0.00000000	          0.07117405	          0.00000000	          0.00000000	          0.00000000	          0.00000000	          0.00000000	          0.00000000	          0.00000000	         -2.67188171	          0.00000000	          0.00000000	          0.00000000	          0.00000000	
          1.14800000	       -325.05581442	       1030.23993722	          3.31438934	          0.86535894	          0.00000000	          0.07099580	          0.00000000	          0.00000000	          0.00000000	          0.00000000	          0.00000000	          0.00000000	          0.00000000	         -2.76511171	          0.00000000	          0.00000000	          0.00000000	          0.00000000	
          1.15200000	       -326.68875399	       1067.46715684	          3.29854468	          0.86549976	          0.00000000	          0.07092403	          0.00000000	          0.00000000	          0.00000000	          0.00000000	          0.00000000	          0.00000000	          0.00000000	         -2.55995182	          0.00000000	          0.00000000	          0.00000000	          0.00000000	
          1.15600000	       -333.49010924	       1095.48862871	          2.74037455	          0.86644532	          0.00000000	          0.07098543	          0.00000000	          0.00000000	          0.00000000	          0.00000000	          0.00000000	          0.00000000	          0.00000000	         -2.11213859	          0.00000000	          0.00000000	          0.00000000	          0.00000000	
